<?xml version="1.0" encoding="UTF-8" standalone="no"?>
<!-- Created with Inkscape (http://www.inkscape.org/) -->

<svg
   xmlns:dc="http://purl.org/dc/elements/1.1/"
   xmlns:cc="http://creativecommons.org/ns#"
   xmlns:rdf="http://www.w3.org/1999/02/22-rdf-syntax-ns#"
   xmlns:svg="http://www.w3.org/2000/svg"
   xmlns="http://www.w3.org/2000/svg"
   xmlns:sodipodi="http://sodipodi.sourceforge.net/DTD/sodipodi-0.dtd"
   xmlns:inkscape="http://www.inkscape.org/namespaces/inkscape"
   width="96.318764mm"
   height="24.31773mm"
   viewBox="0 0 96.318764 24.31773"
   version="1.1"
   id="svg8"
   inkscape:version="0.92.0 r15299"
   sodipodi:docname="baincapital ventures.svg">
  <defs
     id="defs2">
    <style
       id="style10">.cls-1{fill:#fff;}.cls-2{fill:#e42b26;}.cls-3{fill:#1c2156;}.cls-4{fill:#23a6de;}.cls-5{fill:#abcae9;}</style>
  </defs>
  <sodipodi:namedview
     id="base"
     pagecolor="#ffffff"
     bordercolor="#666666"
     borderopacity="1.0"
     inkscape:pageopacity="0.0"
     inkscape:pageshadow="2"
     inkscape:zoom="2.4898685"
     inkscape:cx="180.13"
     inkscape:cy="44.065004"
     inkscape:document-units="mm"
     inkscape:current-layer="layer1"
     showgrid="false"
     fit-margin-top="0"
     fit-margin-left="0"
     fit-margin-right="0"
     fit-margin-bottom="0"
     inkscape:window-width="1280"
     inkscape:window-height="744"
     inkscape:window-x="-4"
     inkscape:window-y="-4"
     inkscape:window-maximized="1" />
  <metadata
     id="metadata5">
    <rdf:RDF>
      <cc:Work
         rdf:about="">
        <dc:format>image/svg+xml</dc:format>
        <dc:type
           rdf:resource="http://purl.org/dc/dcmitype/StillImage" />
        <dc:title></dc:title>
      </cc:Work>
    </rdf:RDF>
  </metadata>
  <g
     inkscape:label="Layer 1"
     inkscape:groupmode="layer"
     id="layer1"
     transform="translate(136.10582,-185.31137)">
    <g
       id="g99"
       transform="translate(0.50000187,-0.50000013)">
      <polygon
         transform="matrix(0.26458333,0,0,0.26458333,-136.10582,186.31137)"
         id="polygon16"
         points="19.3,28.95 0,19.3 0,38.6 "
         class="cls-1"
         style="fill:#ffffff" />
      <polygon
         transform="matrix(0.26458333,0,0,0.26458333,-136.10582,186.31137)"
         id="polygon18"
         points="0,38.6 0,57.9 38.6,38.6 19.3,28.95 "
         class="cls-2"
         style="fill:#e42b26" />
      <polygon
         transform="matrix(0.26458333,0,0,0.26458333,-136.10582,186.31137)"
         id="polygon20"
         points="0,57.9 57.9,57.9 57.9,48.25 38.6,38.6 "
         class="cls-3"
         style="fill:#1c2156" />
      <polygon
         transform="matrix(0.26458333,0,0,0.26458333,-136.10582,186.31137)"
         id="polygon22"
         points="0,0 0,19.3 19.3,28.95 38.6,19.3 "
         class="cls-4"
         style="fill:#23a6de" />
      <polygon
         transform="matrix(0.26458333,0,0,0.26458333,-136.10582,186.31137)"
         id="polygon24"
         points="0,0 38.6,19.3 57.9,9.65 57.9,0 "
         class="cls-3"
         style="fill:#1c2156" />
      <polygon
         transform="matrix(0.26458333,0,0,0.26458333,-136.10582,186.31137)"
         id="polygon26"
         points="57.9,28.95 57.9,9.65 38.6,19.3 19.3,28.95 38.6,38.6 57.9,48.25 "
         class="cls-5"
         style="fill:#abcae9" />
      <path
         id="path28"
         d="m -47.54978,195.5665 a 11.728979,11.728979 0 0 0 -1.296458,0.082 c -0.79375,0.12435 -1.230312,0.52917 -1.230312,1.23031 0,0.60854 0.399521,0.93927 0.994833,0.93927 0.814917,0 1.531937,-0.55298 1.531937,-1.62983 z m -2.084916,3.64596 c -1.463146,0 -2.38125,-0.91282 -2.38125,-2.30452 0,-1.27 0.814917,-2.04523 2.166937,-2.36273 a 10.940521,10.940521 0 0 1 2.304521,-0.19315 c 0,-1.09008 -0.441854,-1.4605 -1.574271,-1.4605 a 5.0852916,5.0852916 0 0 0 -2.098145,0.49742 v -1.51077 a 6.0351458,6.0351458 0 0 1 2.346854,-0.45509 c 2.38125,0 3.241145,1.07686 3.241145,3.10621 v 3.00038 h 0.939271 v 1.51606 h -2.645833 l -0.145521,-0.75671 h -0.0291 a 2.6934583,2.6934583 0 0 1 -2.116667,0.92604 m -23.905104,-3.6486 a 11.705167,11.705167 0 0 0 -1.293812,0.082 c -0.79375,0.12435 -1.230312,0.52917 -1.230312,1.23031 0,0.60854 0.39952,0.93927 0.992187,0.93927 0.814917,0 1.531937,-0.55298 1.531937,-1.62983 z m -2.08227,3.64596 c -1.463146,0 -2.38125,-0.91282 -2.38125,-2.30452 0,-1.27 0.814916,-2.04523 2.166937,-2.36273 a 10.940521,10.940521 0 0 1 2.304521,-0.19315 c 0,-1.09008 -0.441854,-1.4605 -1.571625,-1.4605 a 5.0879374,5.0879374 0 0 0 -2.098146,0.49742 v -1.51077 a 6.0430833,6.0430833 0 0 1 2.346854,-0.45509 c 2.38125,0 3.243792,1.07686 3.243792,3.10621 v 3.00038 h 0.936625 v 1.51606 h -2.645833 l -0.150813,-0.75671 h -0.02646 a 2.7013958,2.7013958 0 0 1 -2.116667,0.92604 m -27.310296,-3.6486 a 11.795125,11.795125 0 0 0 -1.2991,0.082 c -0.79375,0.12435 -1.22767,0.52917 -1.22767,1.23031 0,0.60854 0.40217,0.93927 0.99484,0.93927 0.81491,0 1.53193,-0.55298 1.53193,-1.62983 z m -2.08491,3.6486 c -1.46315,0 -2.38125,-0.91281 -2.38125,-2.30452 0,-1.27 0.81491,-2.04523 2.16693,-2.36273 a 10.932583,10.932583 0 0 1 2.30452,-0.19314 c 0,-1.09009 -0.4392,-1.4605 -1.57427,-1.4605 a 5.0773541,5.0773541 0 0 0 -2.09814,0.49741 v -1.51341 a 6.0377916,6.0377916 0 0 1 2.34685,-0.45509 c 2.38125,0 3.24379,1.07686 3.24379,3.10621 v 3.00038 h 0.93927 v 1.51606 h -2.64583 l -0.15346,-0.75671 h -0.0265 a 2.69875,2.69875 0 0 1 -2.11666,0.92604 m 40.878124,-3.92377 c 0,-1.39171 -0.687916,-2.31775 -1.751541,-2.31775 -1.063625,0 -1.738313,0.93663 -1.738313,2.30452 0,1.3679 0.674688,2.33098 1.698625,2.33098 1.058334,0 1.793875,-0.93927 1.793875,-2.32039 m 1.973792,0 c 0,2.32039 -1.322917,3.92377 -3.243792,3.92377 -1.145646,0 -1.822979,-0.45773 -2.166937,-0.92605 h -0.03704 v 3.14061 l -1.931458,0.79375 v -9.15194 h -0.978959 v -1.51606 h 2.759605 l 0.124354,0.97896 h 0.02646 c 0.248708,-0.38629 0.828146,-1.11919 2.193396,-1.11919 2.00025,0 3.243792,1.53194 3.243792,3.87879 m -28.191354,-3.87879 a 2.9104166,2.9104166 0 0 0 -2.415646,1.11919 h -0.0291 l -0.124354,-0.97896 h -2.881313 v 1.51606 h 1.076854 v 5.97694 h 1.947334 v -3.4634 c 0,-1.85208 0.978958,-2.53735 1.820333,-2.53735 0.79375,0 1.158875,0.51064 1.158875,1.65629 v 4.34446 h 1.931458 v -4.78631 c 0,-1.8759 -0.854604,-2.84427 -2.495021,-2.84427 m 8.845021,6.01927 c -1.987021,0 -3.159125,-1.3388 -3.159125,-3.4925 0,-2.09815 1.172104,-3.51896 2.992438,-3.51896 a 5.6197499,5.6197499 0 0 1 1.309687,0.15081 v 2.11667 l 1.727729,-0.71702 v -2.49238 a 5.7070624,5.7070624 0 0 0 -2.95275,-0.74348 c -3.050646,0 -5.132916,1.8759 -5.132916,5.23081 0,3.175 1.852083,5.24669 5.132916,5.24669 a 6.3499999,6.3499999 0 0 0 2.987146,-0.74877 l -0.425979,-1.62719 a 5.3604583,5.3604583 0 0 1 -2.479146,0.59532 m 39.78275,0.0979 v -9.26041 l -1.944688,0.79375 v 9.98008 h 2.883958 v -1.51606 h -0.93927 z m -68.31277,-1.52135 c 0,-0.96573 -0.70379,-1.49225 -1.91823,-1.49225 h -1.85208 v 2.99773 h 1.87854 c 1.35202,0 1.905,-0.60854 1.905,-1.50548 m -3.79413,-2.99509 h 1.57427 c 1.11919,0 1.6563,-0.52916 1.6563,-1.28322 0,-0.87048 -0.52917,-1.32292 -1.54517,-1.32292 h -1.6854 z m 5.83671,3.09563 c 0,1.94469 -1.53194,2.92365 -3.83646,2.92365 h -4.00314 v -8.61484 h -1.21444 v -1.51871 h 4.88685 c 1.32292,0 1.98967,0.17992 2.51355,0.51065 a 2.2595416,2.2595416 0 0 1 1.05833,2.00025 c 0,1.05833 -0.66146,1.87854 -1.73831,2.16694 v 0.0291 c 1.44991,0.24871 2.33362,1.20121 2.33362,2.51354 m 46.392043,-3.05329 h 1.058333 v 5.97694 h 1.939396 v -7.493 h -2.997729 z m 1.058333,-2.81517 h 1.939396 v -1.83356 h -1.947333 v 1.83621 z m -39.335603,2.81517 h 1.058333 v 5.97694 h 1.947333 v -7.493 h -3.005666 z m 1.058333,-2.81517 h 1.947333 v -1.83356 h -1.947333 v 1.83621 z m 44.283312,1.29646 h 1.973792 v 1.51871 h -1.973792 v 3.30729 c 0,0.82815 0.179917,1.32292 0.978958,1.32292 a 5.2361041,5.2361041 0 0 0 0.883709,-0.12435 v 1.44991 a 6.8791666,6.8791666 0 0 1 -1.518709,0.20902 c -1.518708,0 -2.278062,-0.73289 -2.278062,-2.34685 v -3.81794 h -1.058333 v -1.51606 h 1.058333 v -1.28588 l 1.934104,-0.79375 v 2.08492 z"
         class="cls-3"
         inkscape:connector-curvature="0"
         style="fill:#1c2156;stroke-width:0.26458332" />
      <polygon
         transform="matrix(0.26458333,0,0,0.26458333,-136.10582,186.31137)"
         id="polygon30"
         points="79.03,69.23 75.14,69.23 81.42,87.78 85.52,87.78 91.8,69.23 88.2,69.23 83.59,83.84 "
         class="cls-3"
         style="fill:#1c2156" />
      <polygon
         transform="matrix(0.26458333,0,0,0.26458333,-136.10582,186.31137)"
         id="polygon32"
         points="98.49,84.8 98.49,79.54 106.15,79.54 106.15,76.62 98.49,76.62 98.49,72.12 106.73,72.12 106.73,69.23 94.81,69.23 94.81,87.78 107,87.78 107,84.8 "
         class="cls-3"
         style="fill:#1c2156" />
      <polygon
         transform="matrix(0.26458333,0,0,0.26458333,-136.10582,186.31137)"
         id="polygon34"
         points="114.46,74.34 122.78,87.78 126.32,87.78 126.32,69.23 122.84,69.23 122.84,82 114.93,69.23 110.98,69.23 110.98,87.78 114.46,87.78 "
         class="cls-3"
         style="fill:#1c2156" />
      <polygon
         transform="matrix(0.26458333,0,0,0.26458333,-136.10582,186.31137)"
         id="polygon36"
         points="129.39,69.23 129.39,72.12 134.71,72.12 134.71,87.78 138.37,87.78 138.37,72.12 143.65,72.12 143.65,69.23 "
         class="cls-3"
         style="fill:#1c2156" />
      <path
         id="path38"
         d="m -94.383675,204.62848 h 0.973667 v 2.96068 c 0,0.65882 -0.100542,1.10596 -0.431271,1.47638 -0.330729,0.37042 -0.79375,0.55033 -1.524,0.55033 -0.73025,0 -1.198562,-0.17727 -1.524,-0.55033 -0.325437,-0.37306 -0.439208,-0.81227 -0.439208,-1.46844 v -2.96862 h 0.973666 v 3.01625 c 0,0.42598 0.04762,0.61912 0.201084,0.79375 a 1.1482917,1.1482917 0 0 0 1.568979,0 c 0.156104,-0.18521 0.201083,-0.37836 0.201083,-0.79375 z"
         class="cls-3"
         inkscape:connector-curvature="0"
         style="fill:#1c2156;stroke-width:0.26458332" />
      <path
         id="path40"
         d="m -89.933383,205.53335 a 1.0345208,1.0345208 0 0 0 -0.627063,-0.16404 h -0.687916 v 1.53194 h 0.679979 a 1.0583333,1.0583333 0 0 0 0.635,-0.16404 0.76464582,0.76464582 0 0 0 0,-1.20386 m 0.439208,4.00315 -1.145646,-1.90765 h -0.611187 v 1.90765 h -0.971021 v -4.90802 h 1.770063 a 2.0240625,2.0240625 0 0 1 1.235604,0.33073 1.4499166,1.4499166 0 0 1 -0.463021,2.51089 l 1.299104,2.06375 h -1.113896 z"
         class="cls-3"
         inkscape:connector-curvature="0"
         style="fill:#1c2156;stroke-width:0.26458332" />
      <polygon
         transform="matrix(0.26458333,0,0,0.26458333,-136.10582,186.31137)"
         id="polygon42"
         points="187.31,84.8 187.31,79.54 194.97,79.54 194.97,76.62 187.31,76.62 187.31,72.12 195.55,72.12 195.55,69.23 183.63,69.23 183.63,87.78 195.81,87.78 195.81,84.8 "
         class="cls-3"
         style="fill:#1c2156" />
      <path
         id="path44"
         d="m -81.876821,209.60529 a 2.6167291,2.6167291 0 0 1 -1.815041,-0.7329 l 0.486833,-0.68791 a 2.1404791,2.1404791 0 0 0 1.322917,0.60325 c 0.579437,0 0.873125,-0.23019 0.873125,-0.60325 0,-0.37307 -0.36248,-0.508 -0.558271,-0.58738 -0.195792,-0.0794 -0.817563,-0.30162 -0.949854,-0.35454 a 1.3229166,1.3229166 0 0 1 -0.947209,-1.27529 c 0,-0.635 0.447146,-1.41552 1.762125,-1.41552 a 2.4394583,2.4394583 0 0 1 1.648354,0.64823 l -0.418041,0.66675 a 2.0028958,2.0028958 0 0 0 -1.259417,-0.52917 c -0.502708,0 -0.79375,0.18521 -0.79375,0.55033 0,0.36513 0.357188,0.49477 0.529167,0.5715 0.171979,0.0767 0.79375,0.29369 0.933979,0.34925 0.732896,0.26459 1.005417,0.74084 1.005417,1.28852 0,0.7038 -0.502709,1.53194 -1.852084,1.53194"
         class="cls-3"
         inkscape:connector-curvature="0"
         style="fill:#1c2156;stroke-width:0.26458332" />
    </g>
  </g>
</svg>
