<svg width="1540" height="286" viewBox="0 0 1540 286" fill="none" xmlns="http://www.w3.org/2000/svg">
<path d="M166.993 20.0054H20.4778V144.31C20.4778 159.409 24.1309 173.145 30.1708 185.468C49.362 88.9767 119.113 37.1021 166.993 20.0054Z" fill="black"/>
<path d="M215.334 20H190.687C137.546 40.1654 65.1162 115.323 92.9288 248.784C115.773 262.764 135.159 269.68 135.159 269.68C135.159 269.68 157.273 261.302 182.066 244.985C131.457 163.739 143.001 69.5853 215.334 20Z" fill="black"/>
<path d="M232.016 20C181.992 56.3366 175.319 140.067 231.821 198.517C242.586 182.93 249.795 164.811 249.795 144.304V20H232.016Z" fill="black"/>
<g clip-path="url(#clip0_1419_595)">
<path d="M421.031 20.4619H291.113V266.225H421.031C515.252 266.225 573.775 227.61 573.775 144.888V141.799C573.775 59.0769 515.08 20.4619 421.031 20.4619ZM498.776 144.716C498.776 188.309 475.607 209.246 420.001 209.246H363.881V77.4405H420.001C475.607 77.4405 498.776 98.3785 498.776 141.97V144.716ZM821.053 141.112C843.364 134.248 858.81 117.429 858.81 87.0514C858.81 34.3633 816.248 20.4619 760.814 20.4619H589.534V266.225H662.303V171.49H754.464C777.976 171.49 788.788 180.585 788.788 202.382V266.225H861.556V199.121C861.556 167.027 845.939 148.32 821.053 141.112ZM753.434 120.003H662.303V75.0378H751.374C772.313 75.0378 785.013 78.6419 785.013 97.5204C785.013 115.713 773.171 120.003 753.434 120.003ZM881.253 20.4619V266.225H954.02V20.4619H881.253ZM1193.61 20.4619L1117.41 200.666L1041.04 20.4619H961.236L1072.28 266.225H1159.8L1270.67 20.4619H1193.61ZM1349.55 210.62V167.714H1511.04V116.227H1349.55V76.0676H1519.11V20.4619H1277.98V266.225H1520.31V210.62H1349.55Z" fill="black"/>
</g>
<defs>
<clipPath id="clip0_1419_595">
<rect width="1230.33" height="246.229" fill="white" transform="translate(290.427 20)"/>
</clipPath>
</defs>
</svg>
